<svg xmlns="http://www.w3.org/2000/svg" viewBox="0 0 453.44 140.48"><path d="M85.92 126.591c-4.577-1.451-7.837-5.088-7.842-8.748 0-.837.166-2.972.37-4.742.473-4.083.088-7.295-1.469-12.247-1.37-4.361-1.414-5.769-.339-10.743 1.257-5.812 1.046-9.978-.822-16.262-.352-1.183-.936-3.773-1.298-5.755-.882-4.827-1.286-5.921-3.64-9.854a644.334 644.334 0 0 1-3.566-6.037c-2.007-3.458-6.146-8.62-9.164-11.429-4.338-4.038-9.986-6.83-13.853-6.846-4.175-.017-6.32 1.523-10.164 7.296-2.453 3.685-3.792 6.386-4.55 9.176-.66 2.434-.979 10.47-.527 13.28 1.022 6.358 2.454 13.214 3.437 16.455.614 2.025 1.406 5.524 1.76 7.774.354 2.25.786 4.883.96 5.851.847 4.726 5.965 11.949 9.716 13.712 1.075.505 2.344.723 5.053.869 5.73.308 8.366 1.354 9.161 3.634.437 1.252-.487 3.087-2.142 4.253-1.723 1.216-10.756 4.65-13.438 5.11-1.71.294-2.7.296-4.256.009-2.138-.394-10.412-2.899-12.587-3.81-3.396-1.424-8.296-5.95-11.563-10.679C9.235 98.283 5.95 88.313 4.66 75c-.596-6.157-.379-7.928 1.745-14.2 1.793-5.297 2.89-7.404 6.279-12.05 6.196-8.496 12.281-14.36 18.907-18.222 1.721-1.003 4.497-2.795 6.169-3.982 3.369-2.393 4.256-2.822 7.899-3.822 1.375-.377 4.27-1.469 6.43-2.425 2.162-.956 4.15-1.739 4.419-1.739.94 0 4.314 1.905 7.306 4.124 1.73 1.284 6.523 5.695 11.231 10.338 4.518 4.454 8.733 8.368 9.369 8.699.954.496 1.63.573 3.893.444 3.777-.215 5.349-1.054 8.383-4.475 5.45-6.146 8.778-8.82 13.62-10.95 4.088-1.797 7.032-2.45 11.933-2.645 5.501-.22 9.81.544 15.997 2.832 2.376.88 5.772 2.08 7.548 2.667 4.523 1.497 6.972 2.767 10.593 5.49 6.806 5.119 7.977 6.573 10.037 12.462.55 1.57 1.84 4.654 2.868 6.854 2.32 4.963 2.774 6.512 3.352 11.419.34 2.885.38 4.59.153 6.56-.168 1.463-.307 5.276-.309 8.473-.003 6.362-.366 9.003-1.775 12.908-2.11 5.841-5.048 10.336-10.051 15.373-5.62 5.658-6.685 6.27-16.94 9.756-7.524 2.557-9.186 2.84-10.276 1.751-1.104-1.104-.82-2.048 1.122-3.725.97-.836 2.413-2.348 3.207-3.36.794-1.01 2.63-2.78 4.078-3.932 1.448-1.151 2.967-2.588 3.376-3.191 1.893-2.798 2.751-7.372 3.097-16.512.076-2.024.224-4.76.329-6.08.233-2.948-.197-6.825-1.48-13.331-1.13-5.744-1.57-6.905-4.1-10.829-8.641-13.407-9.15-14.011-15.096-17.923-5.267-3.466-6.192-3.913-8.987-4.348-2.675-.417-7.36-.168-9.279.493-1.63.562-10.284 6.4-11.442 7.718-2.736 3.116-4.956 13.295-4.177 19.148.405 3.042 1.438 7.119 2.319 9.152 2.453 5.658 3.089 8.168 3.754 14.803 1.131 11.287 1.265 12.294 1.893 14.313.868 2.79 1.861 4.057 5.628 7.183 5.888 4.887 7.126 7.596 4.756 10.412-1.667 1.981-3.456 2.58-11.478 3.844-2.288.36-5.88 1.085-7.98 1.61-4.182 1.045-5.143 1.114-7.06.506zm112.16-3.23V120h248.8l-.056 3.28-.056 3.28-124.344.08-124.344.08Zm49.852-25.521c-.28-.22-3.783-9.328-7.785-20.24-4.001-10.912-7.4-19.977-7.551-20.144-.164-.18-.276-.036-.276.354 0 .742-7.832 38.04-8.17 38.91-.295.758-3.59.819-3.877.072-.226-.587 10.336-47.793 10.824-48.381.505-.609 2.11-.51 2.448.149.158.308 3.645 9.743 7.749 20.966 4.104 11.223 7.558 20.295 7.674 20.16.117-.135 3.565-9.39 7.662-20.566 4.098-11.176 7.594-20.5 7.77-20.72.478-.6 2.089-.494 2.43.16.161.308 2.697 11.27 5.636 24.36 3.63 16.17 5.239 23.903 5.017 24.125-.43.43-3.185.421-3.616-.01-.186-.186-2.194-9.159-4.464-19.941-2.27-10.782-4.162-19.64-4.207-19.684-.044-.045-3.392 8.93-7.438 19.942-4.047 11.012-7.548 20.217-7.78 20.455-.53.542-1.38.555-2.046.033zm167.598.04c-6.202-.74-11.616-3.406-16.17-7.96-5.017-5.017-7.162-10.056-7.15-16.8.01-6.504 2.116-11.635 6.813-16.598 11.195-11.829 32.007-11.093 42.272 1.495 2.084 2.555 4.352 7.132 4.946 9.983 2.318 11.105-3.156 21.867-13.761 27.057-5.144 2.517-11.142 3.516-16.95 2.822zm8.555-3.936c9.642-1.844 16.542-8.3 18.336-17.155 1.932-9.534-3.773-19.261-13.632-23.243-5.828-2.354-13.7-2.257-19.349.24-6.795 3.002-11.816 9.112-12.98 15.793-2.041 11.723 6.326 22.432 19.22 24.6 1.848.31 6.19.19 8.405-.235zm-135.448 3.39c-.174-.06-.317-.301-.317-.538 0-.237 4.685-10.125 10.41-21.973 14.14-29.262 12.959-26.965 13.927-27.078.486-.057 1.014.137 1.304.48 1.019 1.2 23.385 48.477 23.079 48.783-.169.169-1.142.263-2.163.21l-1.857-.098-3.07-6.47-3.07-6.47-14.159.07-14.158.07-2.897 6.08c-1.594 3.344-3.09 6.274-3.324 6.51-.388.392-2.934.683-3.705.423zm36.483-16.55c0-.282-11.878-25.877-12.137-26.153-.201-.215-11.987 24.239-12.42 25.769-.148.526.584.56 12.2.56 6.796 0 12.357-.08 12.357-.176zm25.124 16.415c-.425-.238-.484-3.146-.484-24.03 0-18.054.092-23.853.384-24.145.288-.288 4.234-.384 15.79-.384 14.52 0 15.437.034 15.936.585.756.835.669 2.161-.181 2.757-.617.432-2.513.498-14.24.498H353.92v20.16h11.936c8.857 0 12.035.1 12.32.384.211.211.384.83.384 1.376 0 .546-.173 1.165-.384 1.376-.285.285-3.463.384-12.32.384H353.92v10.2c0 7.777-.095 10.278-.4 10.523-.55.441-2.684.647-3.276.316zm-149.057-.118c-.125-.125-.227-10.903-.227-23.95 0-18.025.092-23.815.384-24.107.503-.503 2.545-.493 3.238.016.505.371.538 2.112.461 24.24l-.083 23.84-1.773.094c-.975.052-1.875-.008-2-.133zM196.8 22.72v-3.2h252.48v6.4H196.8Z" fill="currentColor"/></svg>
