<?xml version="1.0" encoding="utf-8"?>
<!-- Generator: Adobe Illustrator 16.0.0, SVG Export Plug-In . SVG Version: 6.00 Build 0)  -->
<!DOCTYPE svg PUBLIC "-//W3C//DTD SVG 1.1//EN" "http://www.w3.org/Graphics/SVG/1.1/DTD/svg11.dtd">
<svg version="1.1" id="Ebene_1" xmlns="http://www.w3.org/2000/svg" xmlns:xlink="http://www.w3.org/1999/xlink" x="0px" y="0px"
	 width="24px" height="24px" viewBox="0 0 24 24" enable-background="new 0 0 24 24" xml:space="preserve">
<g>
	<rect fill="none" width="24" height="24"/>
</g>
<g>
	<g>
		<g>
			<path d="M12,9.5"/>
			<path d="M17.21,13c0.39,0.88,1.261,1.5,2.29,1.5c1.38,0,2.5-1.12,2.5-2.5s-1.12-2.5-2.5-2.5c-1.029,0-1.9,0.62-2.29,1.5"/>
			<path d="M6.79,11C6.4,10.12,5.53,9.5,4.5,9.5C3.12,9.5,2,10.62,2,12s1.12,2.5,2.5,2.5c1.03,0,1.9-0.62,2.29-1.5"/>
		</g>
	</g>
</g>
<rect x="5.79" y="11" width="12.42" height="2"/>
</svg>
